<mxfile host="www.draw.io" modified="2019-12-13T02:47:47.007Z" agent="Mozilla/5.0 (Windows NT 10.0; Win64; x64) AppleWebKit/537.36 (KHTML, like Gecko) Chrome/74.0.3729.108 Safari/537.36" etag="dbXNOcJmDbqZt34AhcJS" version="12.4.1" type="github" pages="1">
  <diagram id="sTO38Lxawi0Mq8qrIEA8" name="第 1 页">
    <mxGraphModel dx="1550" dy="787" grid="1" gridSize="10" guides="1" tooltips="1" connect="1" arrows="1" fold="1" page="1" pageScale="1" pageWidth="1169" pageHeight="1654" math="0" shadow="0">
      <root>
        <mxCell id="0"/>
        <mxCell id="1" parent="0"/>
        <mxCell id="cN231913GO855a0irWZw-52" value="" style="rounded=0;whiteSpace=wrap;html=1;fillColor=none;dashed=1;strokeColor=#FF3333;" parent="1" vertex="1">
          <mxGeometry x="520" y="677" width="600" height="290" as="geometry"/>
        </mxCell>
        <mxCell id="cN231913GO855a0irWZw-35" value="" style="rounded=0;whiteSpace=wrap;html=1;fillColor=none;dashed=1;strokeColor=#FF3333;" parent="1" vertex="1">
          <mxGeometry x="680" y="597" width="200" height="40" as="geometry"/>
        </mxCell>
        <mxCell id="cN231913GO855a0irWZw-2" value="预下单开始" style="ellipse;whiteSpace=wrap;html=1;aspect=fixed;" parent="1" vertex="1">
          <mxGeometry x="295" y="340" width="50" height="50" as="geometry"/>
        </mxCell>
        <mxCell id="cN231913GO855a0irWZw-4" value="请求参数解密" style="rounded=0;whiteSpace=wrap;html=1;" parent="1" vertex="1">
          <mxGeometry x="240" y="437" width="160" height="40" as="geometry"/>
        </mxCell>
        <mxCell id="cN231913GO855a0irWZw-5" value="鉴权&lt;br&gt;(请求来源以及是否合达)" style="rounded=0;whiteSpace=wrap;html=1;" parent="1" vertex="1">
          <mxGeometry x="240" y="517" width="160" height="40" as="geometry"/>
        </mxCell>
        <mxCell id="cN231913GO855a0irWZw-6" value="请求参数异步落库" style="rounded=0;whiteSpace=wrap;html=1;" parent="1" vertex="1">
          <mxGeometry x="440" y="597" width="160" height="40" as="geometry"/>
        </mxCell>
        <mxCell id="cN231913GO855a0irWZw-8" value="策略模式执行预下单" style="rounded=0;whiteSpace=wrap;html=1;" parent="1" vertex="1">
          <mxGeometry x="240" y="677" width="160" height="40" as="geometry"/>
        </mxCell>
        <mxCell id="cN231913GO855a0irWZw-9" value="把参数转化成指定报文协议" style="rounded=0;whiteSpace=wrap;html=1;" parent="1" vertex="1">
          <mxGeometry x="240" y="757" width="160" height="40" as="geometry"/>
        </mxCell>
        <mxCell id="cN231913GO855a0irWZw-10" value="sign加密" style="rounded=0;whiteSpace=wrap;html=1;" parent="1" vertex="1">
          <mxGeometry x="240" y="837" width="160" height="40" as="geometry"/>
        </mxCell>
        <mxCell id="cN231913GO855a0irWZw-11" value="第三方支付服务预下单接口" style="rounded=0;whiteSpace=wrap;html=1;" parent="1" vertex="1">
          <mxGeometry x="240" y="917" width="160" height="40" as="geometry"/>
        </mxCell>
        <mxCell id="cN231913GO855a0irWZw-12" value="返回预下单prepare_id给前端" style="rounded=0;whiteSpace=wrap;html=1;" parent="1" vertex="1">
          <mxGeometry x="240" y="997" width="160" height="40" as="geometry"/>
        </mxCell>
        <mxCell id="cN231913GO855a0irWZw-15" value="" style="endArrow=classic;html=1;entryX=0.5;entryY=0;entryDx=0;entryDy=0;" parent="1" target="cN231913GO855a0irWZw-5" edge="1">
          <mxGeometry width="50" height="50" relative="1" as="geometry">
            <mxPoint x="320" y="477" as="sourcePoint"/>
            <mxPoint x="310" y="527" as="targetPoint"/>
          </mxGeometry>
        </mxCell>
        <mxCell id="cN231913GO855a0irWZw-16" value="" style="endArrow=classic;html=1;entryX=0.5;entryY=0;entryDx=0;entryDy=0;exitX=0.5;exitY=1;exitDx=0;exitDy=0;" parent="1" source="cN231913GO855a0irWZw-5" target="cN231913GO855a0irWZw-8" edge="1">
          <mxGeometry width="50" height="50" relative="1" as="geometry">
            <mxPoint x="310" y="607" as="sourcePoint"/>
            <mxPoint x="360" y="557" as="targetPoint"/>
          </mxGeometry>
        </mxCell>
        <mxCell id="cN231913GO855a0irWZw-17" value="" style="endArrow=classic;html=1;entryX=0;entryY=0.5;entryDx=0;entryDy=0;" parent="1" target="cN231913GO855a0irWZw-6" edge="1">
          <mxGeometry width="50" height="50" relative="1" as="geometry">
            <mxPoint x="320" y="617" as="sourcePoint"/>
            <mxPoint x="430" y="617" as="targetPoint"/>
          </mxGeometry>
        </mxCell>
        <mxCell id="cN231913GO855a0irWZw-20" value="" style="endArrow=classic;html=1;entryX=0.5;entryY=0;entryDx=0;entryDy=0;" parent="1" edge="1">
          <mxGeometry width="50" height="50" relative="1" as="geometry">
            <mxPoint x="319.5" y="717" as="sourcePoint"/>
            <mxPoint x="319.5" y="757" as="targetPoint"/>
          </mxGeometry>
        </mxCell>
        <mxCell id="cN231913GO855a0irWZw-21" value="" style="endArrow=classic;html=1;entryX=0.5;entryY=0;entryDx=0;entryDy=0;" parent="1" edge="1">
          <mxGeometry width="50" height="50" relative="1" as="geometry">
            <mxPoint x="320" y="797" as="sourcePoint"/>
            <mxPoint x="320" y="837" as="targetPoint"/>
          </mxGeometry>
        </mxCell>
        <mxCell id="cN231913GO855a0irWZw-22" value="" style="endArrow=classic;html=1;entryX=0.5;entryY=0;entryDx=0;entryDy=0;" parent="1" edge="1">
          <mxGeometry width="50" height="50" relative="1" as="geometry">
            <mxPoint x="319" y="877" as="sourcePoint"/>
            <mxPoint x="319" y="917" as="targetPoint"/>
          </mxGeometry>
        </mxCell>
        <mxCell id="cN231913GO855a0irWZw-23" value="" style="endArrow=classic;html=1;entryX=0.5;entryY=0;entryDx=0;entryDy=0;" parent="1" edge="1">
          <mxGeometry width="50" height="50" relative="1" as="geometry">
            <mxPoint x="319" y="957" as="sourcePoint"/>
            <mxPoint x="319" y="997" as="targetPoint"/>
          </mxGeometry>
        </mxCell>
        <mxCell id="cN231913GO855a0irWZw-26" value="" style="endArrow=classic;html=1;entryX=0.5;entryY=0;entryDx=0;entryDy=0;" parent="1" edge="1">
          <mxGeometry width="50" height="50" relative="1" as="geometry">
            <mxPoint x="320" y="1037" as="sourcePoint"/>
            <mxPoint x="320" y="1077" as="targetPoint"/>
          </mxGeometry>
        </mxCell>
        <mxCell id="cN231913GO855a0irWZw-28" value="" style="endArrow=classic;html=1;entryX=0.5;entryY=0;entryDx=0;entryDy=0;" parent="1" edge="1">
          <mxGeometry width="50" height="50" relative="1" as="geometry">
            <mxPoint x="320" y="395" as="sourcePoint"/>
            <mxPoint x="320" y="435" as="targetPoint"/>
          </mxGeometry>
        </mxCell>
        <mxCell id="cN231913GO855a0irWZw-29" value="" style="endArrow=none;dashed=1;html=1;" parent="1" edge="1">
          <mxGeometry width="50" height="50" relative="1" as="geometry">
            <mxPoint x="160" y="397" as="sourcePoint"/>
            <mxPoint x="720" y="397" as="targetPoint"/>
          </mxGeometry>
        </mxCell>
        <mxCell id="cN231913GO855a0irWZw-30" value="" style="endArrow=none;dashed=1;html=1;" parent="1" edge="1">
          <mxGeometry width="50" height="50" relative="1" as="geometry">
            <mxPoint x="160" y="577" as="sourcePoint"/>
            <mxPoint x="720" y="577" as="targetPoint"/>
          </mxGeometry>
        </mxCell>
        <mxCell id="cN231913GO855a0irWZw-32" value="网关层" style="text;html=1;strokeColor=none;fillColor=none;align=center;verticalAlign=middle;whiteSpace=wrap;rounded=0;" parent="1" vertex="1">
          <mxGeometry x="140" y="477" width="40" height="20" as="geometry"/>
        </mxCell>
        <mxCell id="cN231913GO855a0irWZw-33" value="" style="endArrow=none;dashed=1;html=1;" parent="1" edge="1">
          <mxGeometry width="50" height="50" relative="1" as="geometry">
            <mxPoint x="160" y="977" as="sourcePoint"/>
            <mxPoint x="520" y="978" as="targetPoint"/>
          </mxGeometry>
        </mxCell>
        <mxCell id="cN231913GO855a0irWZw-34" value="核心层" style="text;html=1;strokeColor=none;fillColor=none;align=center;verticalAlign=middle;whiteSpace=wrap;rounded=0;" parent="1" vertex="1">
          <mxGeometry x="140" y="807" width="40" height="20" as="geometry"/>
        </mxCell>
        <mxCell id="cN231913GO855a0irWZw-36" value="为每一个进入支付中心的请求进行参数落库，便于数据追踪" style="text;html=1;strokeColor=none;fillColor=none;align=center;verticalAlign=middle;whiteSpace=wrap;rounded=0;dashed=1;" parent="1" vertex="1">
          <mxGeometry x="697" y="607" width="166" height="20" as="geometry"/>
        </mxCell>
        <mxCell id="cN231913GO855a0irWZw-37" value="网关层，使用拦截器统一拦截处理" style="rounded=0;whiteSpace=wrap;html=1;fillColor=none;dashed=1;strokeColor=#FF3333;" parent="1" vertex="1">
          <mxGeometry x="680" y="437" width="200" height="40" as="geometry"/>
        </mxCell>
        <mxCell id="cN231913GO855a0irWZw-40" value="&lt;span style=&quot;margin: 0px ; padding: 0px ; font-family: &amp;#34;verdana&amp;#34; , &amp;#34;arial&amp;#34; , &amp;#34;helvetica&amp;#34; , sans-serif ; font-size: 14px ; text-align: left ; background-color: rgba(255 , 255 , 255 , 0.5)&quot;&gt;Strategy上下文&lt;/span&gt;" style="rounded=0;whiteSpace=wrap;html=1;strokeColor=#000000;fillColor=none;fontStyle=0" parent="1" vertex="1">
          <mxGeometry x="560" y="702" width="120" height="40" as="geometry"/>
        </mxCell>
        <mxCell id="cN231913GO855a0irWZw-41" value="&lt;span style=&quot;margin: 0px ; padding: 0px ; font-family: &amp;#34;verdana&amp;#34; , &amp;#34;arial&amp;#34; , &amp;#34;helvetica&amp;#34; , sans-serif ; font-size: 14px ; text-align: left ; background-color: rgba(255 , 255 , 255 , 0.5)&quot;&gt;预下单接口&lt;/span&gt;" style="rounded=0;whiteSpace=wrap;html=1;strokeColor=#000000;fillColor=none;fontStyle=0" parent="1" vertex="1">
          <mxGeometry x="800" y="702" width="120" height="40" as="geometry"/>
        </mxCell>
        <mxCell id="cN231913GO855a0irWZw-42" value="&lt;span style=&quot;margin: 0px ; padding: 0px ; font-family: &amp;#34;verdana&amp;#34; , &amp;#34;arial&amp;#34; , &amp;#34;helvetica&amp;#34; , sans-serif ; font-size: 14px ; text-align: left ; background-color: rgba(255 , 255 , 255 , 0.5)&quot;&gt;支付宝预下单&lt;/span&gt;" style="rounded=0;whiteSpace=wrap;html=1;strokeColor=#000000;fillColor=none;fontStyle=0" parent="1" vertex="1">
          <mxGeometry x="637" y="837" width="120" height="40" as="geometry"/>
        </mxCell>
        <mxCell id="cN231913GO855a0irWZw-43" value="&lt;span style=&quot;margin: 0px ; padding: 0px ; font-family: &amp;#34;verdana&amp;#34; , &amp;#34;arial&amp;#34; , &amp;#34;helvetica&amp;#34; , sans-serif ; font-size: 14px ; text-align: left ; background-color: rgba(255 , 255 , 255 , 0.5)&quot;&gt;微信支付预下单&lt;/span&gt;" style="rounded=0;whiteSpace=wrap;html=1;strokeColor=#000000;fillColor=none;fontStyle=0" parent="1" vertex="1">
          <mxGeometry x="800" y="837" width="120" height="40" as="geometry"/>
        </mxCell>
        <mxCell id="cN231913GO855a0irWZw-46" value="&lt;span style=&quot;margin: 0px ; padding: 0px ; font-family: &amp;#34;verdana&amp;#34; , &amp;#34;arial&amp;#34; , &amp;#34;helvetica&amp;#34; , sans-serif ; font-size: 14px ; text-align: left ; background-color: rgba(255 , 255 , 255 , 0.5)&quot;&gt;其他支付预下单&lt;/span&gt;" style="rounded=0;whiteSpace=wrap;html=1;strokeColor=#000000;fillColor=none;fontStyle=0" parent="1" vertex="1">
          <mxGeometry x="960" y="837" width="120" height="40" as="geometry"/>
        </mxCell>
        <mxCell id="cN231913GO855a0irWZw-47" value="" style="endArrow=classic;html=1;exitX=0.5;exitY=0;exitDx=0;exitDy=0;" parent="1" source="cN231913GO855a0irWZw-42" edge="1">
          <mxGeometry width="50" height="50" relative="1" as="geometry">
            <mxPoint x="720" y="972" as="sourcePoint"/>
            <mxPoint x="850" y="752" as="targetPoint"/>
          </mxGeometry>
        </mxCell>
        <mxCell id="cN231913GO855a0irWZw-49" value="" style="endArrow=classic;html=1;entryX=0.5;entryY=1;entryDx=0;entryDy=0;exitX=0.5;exitY=0;exitDx=0;exitDy=0;" parent="1" source="cN231913GO855a0irWZw-43" target="cN231913GO855a0irWZw-41" edge="1">
          <mxGeometry width="50" height="50" relative="1" as="geometry">
            <mxPoint x="770" y="832" as="sourcePoint"/>
            <mxPoint x="870" y="752" as="targetPoint"/>
          </mxGeometry>
        </mxCell>
        <mxCell id="cN231913GO855a0irWZw-50" value="" style="endArrow=classic;html=1;exitX=0.5;exitY=0;exitDx=0;exitDy=0;" parent="1" source="cN231913GO855a0irWZw-46" edge="1">
          <mxGeometry width="50" height="50" relative="1" as="geometry">
            <mxPoint x="899.5" y="822" as="sourcePoint"/>
            <mxPoint x="870" y="752" as="targetPoint"/>
          </mxGeometry>
        </mxCell>
        <mxCell id="cN231913GO855a0irWZw-51" value="" style="endArrow=classic;html=1;entryX=0;entryY=0.5;entryDx=0;entryDy=0;exitX=1;exitY=0.5;exitDx=0;exitDy=0;" parent="1" source="cN231913GO855a0irWZw-40" target="cN231913GO855a0irWZw-41" edge="1">
          <mxGeometry width="50" height="50" relative="1" as="geometry">
            <mxPoint x="540" y="862" as="sourcePoint"/>
            <mxPoint x="590" y="812" as="targetPoint"/>
          </mxGeometry>
        </mxCell>
        <mxCell id="cN231913GO855a0irWZw-53" value="支付中心内部实现" style="text;html=1;strokeColor=none;fillColor=none;align=center;verticalAlign=middle;whiteSpace=wrap;rounded=0;fontSize=25;" parent="1" vertex="1">
          <mxGeometry x="417" y="190" width="290" height="20" as="geometry"/>
        </mxCell>
        <mxCell id="cN231913GO855a0irWZw-54" value="" style="endArrow=classic;startArrow=classic;html=1;fontSize=15;dashed=1;strokeColor=#FF6666;" parent="1" edge="1">
          <mxGeometry width="50" height="50" relative="1" as="geometry">
            <mxPoint x="440" y="947" as="sourcePoint"/>
            <mxPoint x="440" y="777" as="targetPoint"/>
            <Array as="points">
              <mxPoint x="470" y="947"/>
              <mxPoint x="480" y="857"/>
              <mxPoint x="470" y="777"/>
            </Array>
          </mxGeometry>
        </mxCell>
        <mxCell id="cN231913GO855a0irWZw-55" value="1、预下单接口详情不对外暴露，防止被修改" style="text;html=1;strokeColor=none;fillColor=none;align=center;verticalAlign=middle;whiteSpace=wrap;rounded=0;fontSize=13;" parent="1" vertex="1">
          <mxGeometry x="550" y="884" width="280" height="20" as="geometry"/>
        </mxCell>
        <mxCell id="cN231913GO855a0irWZw-56" value="2、根据开闭原则，对新增开放，对修改关闭" style="text;html=1;strokeColor=none;fillColor=none;align=center;verticalAlign=middle;whiteSpace=wrap;rounded=0;fontSize=13;" parent="1" vertex="1">
          <mxGeometry x="550" y="904" width="280" height="20" as="geometry"/>
        </mxCell>
        <mxCell id="cN231913GO855a0irWZw-57" value="3、如果需要新增新的支付渠道，只需要实现预下单接口即可，对其他支付方式透明无影响" style="text;html=1;strokeColor=none;fillColor=none;align=left;verticalAlign=middle;whiteSpace=wrap;rounded=0;fontSize=13;" parent="1" vertex="1">
          <mxGeometry x="562" y="932" width="334" height="20" as="geometry"/>
        </mxCell>
        <mxCell id="cN231913GO855a0irWZw-58" value="预下单结束" style="ellipse;whiteSpace=wrap;html=1;aspect=fixed;" parent="1" vertex="1">
          <mxGeometry x="295" y="1077" width="50" height="50" as="geometry"/>
        </mxCell>
        <mxCell id="cN231913GO855a0irWZw-59" value="策略模式代码" style="text;html=1;strokeColor=none;fillColor=none;align=center;verticalAlign=middle;whiteSpace=wrap;rounded=0;fontSize=15;" parent="1" vertex="1">
          <mxGeometry x="690" y="997" width="160" height="20" as="geometry"/>
        </mxCell>
        <mxCell id="cN231913GO855a0irWZw-61" value="" style="shape=image;verticalLabelPosition=bottom;labelBackgroundColor=#ffffff;verticalAlign=top;aspect=fixed;imageAspect=0;image=data:image/png,iVBORw0KGgoAAAANSUhEUgAAA0UAAAGNCAIAAABRwU0SAAAAAXNSR0IArs4c6QAAAARnQU1BAACxjwv8YQUAAAAJcEhZcwAAEnQAABJ0Ad5mH3gAAF/OSURBVHhe7b1NqCbJdeddSy1nae+89NLeqTQbbwa8FLMSXtngKYRnIe1GG3Mbw1hoxpRsa1Qa5gULetOyuIygMdWb1xaXotQDA67XVsOVuxczdEMXXBpa0DSNjF31RsSJjIyPEx/5fN0nn/z9CKoyI0+cOBGZT57/jXw+HrwGAAAAgDWDngMAAABYN+g5AAAAgHWDngMAAABYN+g5AAAAgHVzUj13e311dfXk5s7vAgAAAMD+nFDP3V6/8cYb17d+L8LJPO1AxIgNAAAAwBY5mZ6rC7K7myfdVbsRGwAAAIBNciI9Z9VcTY5ZrdaTaiM2AAAAAJvkFHpOW1yzAs8/frWb/n9TE9mN2AAAAABsnePrOfVR6d2d2zfyTI5Mei1mxAYAAABg8xxbz7Xf+GaPGolm/qsvuY3YAAAAAGyX4+q5pppzB6+ub+5u3YZqNmIDAAAAsGmOqeecGKs9IbVPT4M+c19lUpqO2AAAAABsnOPpOSfGkF8AAAAAR+ZYeg41BwAAAHAajqPnqj8FAQAAAAAH5hh6jrU5AAAAgNNxeD1n1RyfQwUAAAA4FQfWc80vKAEAAACAw3NQPYeaAwAAADg5B9RzqDkAAACAe+Bgei757l8AAAAAOBWH/zwEAAAAAJwS9BwAAADAukHPAQAAAKwb9BwAAADAukHPAQAAAKwb9BwAAADAukHPAQAAAKybS9Fz7suM35h4cnPnfkb2Sai8urq+dV+SJ7sGqTkodzfX5RfwLfw9W2N+gG/xM9Px5MnNoccHAAAAZ8k56Dn3VcQHFVdW3RmHd3eRMLK97N+J8dxykndiA1koz5wyHWpTl347dAsAAACr5Qz03LiAGcP4K72plQ7bvV+ym5BwzAG/n9KUhbHGquutJhXheXtb1FlLrYf6YAEAAOACORM9dxD54YTQ9bXm6/Z62dLcopgSRegUVlrjHvtm3kys/nCEidG09DsFpXaz3dhx3d0kj1ZN9XDsAAAAsH7uS89Z7WU0ilUj03qUSJy9lIh1FTvwvcRo4qpgEkpD5PKpkFMmijFnxnCH4d8aBXtz7YdnBmgUbTrq8aEAAADAGrknPeff2RYEjBVeB1AdmZTSFqpGxNX9yLmxXvPPXBQrj9qgAQAA4JK53+etXsLsI0GMWppXoaw/Iwxv7H/Xt7PbWfQcQ87Ni2FXV3Z1zO847APgMWfDvbpBiqXZzJuYKuQcAADAtrhHPed0iRFfd7duY28VYqSa8zEJo1nZmCNeAQ3LOaPChkLK5VO+P9SjxcboNaDDKUM9hHmA5dejFP0DAADAxXNves5prEl63Nq3f43pnipeONl3kzmns7KZJdWIuJrUkmxZjdVoksunQk6N9GiYOw0oVQl2oE4JO/lnMT2bRn4nIo0IAAAALo37fd56QCY5N32rR1BWkS5aJuccpkljoS504sn3B+Vc1qfDdlxvalqUB62bkTVFAAAAuCwuRc/lwikoq1liaaqpoDBqiSS3rBiQ9+35HcfYe+fUuMx46sosrEHGWDf1JgAAAHC5XIiey+VckEOzLtpNzrXINVehwbzuur1JalNMj2kjixqG/0zweAMAAADYBpeh52pyLpI5Q4pnyMg49+tvEVfuIxR+p6D66DQPXCiEoSDvMiwPZQpv6XcnAwAAwMq5CD1XyDl5E52oM10yqQzJuRoVEdag0qIVRTkYxYl1sDAUAAAAWDGXoOd0xTYLHatvRnTaKeVcva+Go7yR7qS2jAcAAAAXyor13PRRVkXOmapEzwx9H8rJ5JztKI1u7tZGXgnCNgvt3I59lFvgmucTAAAAABfMmtfnpo+XptrIqpxCETn50xZrJ5FziSabsfJLxtKMMv7d/XaP6idgAQAA4DJZ+fPW+aOjXhLV1FAshVRs+33kXL+t7aGustpHAQAAAKpcxOchAAAAADYMeg4AAABg3aDnAAAAANYNeg4AAABg3aDnAAAAANYNeg4AAABg3aDnAAAAANYNeg4umIHvkS4IXyZ4d7f06wCHvocwRYtwl6gBAGDTnIOes1+lu3f6sjlQfmLBwDfzbom6ijIXxeIrwV2N0sr9AMnghTk1ExHYkYImLu92jtA6cJuoOQAAWMwZ6DmXvxan3QjjQGRcDJJuM9gLSM52fCWYa+r6Or8w+leFkVWRTSTuqhgb4zkVYO6aboiyKWTzv/Me9ZoGAAAAMMKZ6LndM5hk08iBdWdrWOLYCuYSUM/1JJaWkKupu5tru3t7q15MygKecTCvExv0q9CHJv/F8dfGAgAA0OK+9JxPezZ32U3/v6lZloFdQs2buEr03Cbx15W9Kq6vn0TSKrsejJLyByKurq8zNRZQLif7h0NunJrZYLKLUy5yg5dzcYTXt+GotJMguZABAKDLPek5//4ik78k39nMtzxt2VZzwnQyLjDVW5uwO+fL0CqQNjcUAdn0a+v9Ae85qnG0/URaU4KRo/H2KH//J//lP/zbv/qb//v69f99/sZXzLYp33njzU/84QhnGcp3/sczXz/z7O0//Mp3/vBP/slsfvzmX/3h5E1qAk0/n/zNH5jKt//eb8jRf/of1lXeY+pHMTgE5myVJ7mDPaWLGxnslbHo3Lkm5ownnZne533rcpdQAABgk9zv81afB3dJvdJ4SnnZ9qyN3AG3e2O2zEYgScCFCBPSJO0FnOnnNl3dmRNvz4+P7cnNzbwSYyML2+OiQKTS239vpNgfPP/Y1sRCKmDM4hpp5VRghNNwRgv+09/8waQIrUbMGrb9WIM//JPnf/MHpjJsG3kn20EXSkNTvx/+XDx5YqfOzJpMbJtseu9ub7NrzgqqJ+75ap2sI+syOunu0kguM8N8eUw45WYs/Tv83PHba7N3MwVor9sFFwMAAGyce9RzTmoZNXNnU+DydRHXXBq5hDq1t/VmV5Jhln1j4g7z7Ol8W5u4dqosCZ56fuy+NFFZouf8mly6hBYts9WYV/UipgWzqN66ys1icj8+HlcTb6d6zgnHltuFmAldet3MuLMTTblTWYbZn1WNnQvTNYoupI4clGvV9jmF7v43LwFTdxv6Tr0CAAB0uDc9l6RKl+QWiBmDS8bS3rmaGourybM5ZIVSVGPaTTWN/qxLaxMn1WgZJvNWd5T5mXZt13YA07aPM+mugyrd+npO1vAyRRUelY5T+HFd+wW82rZXgfpD4V1wWmieMj+lMVdPnpjrpHaCktNnzsEkrGR3PlTBns7JwrU2oZj/a42seThouo42fVNfY8dRcwIAAKBwv89b92BOt3GatNs2i/t9n+Bn4WiwdbGN4C0zYhPjWq1MnLf9uK4nex+qO+JbxY46yBPS6AGoQ9Vz87vrpHxnej4bcEtoeWVB00+8XBcvwmULcm53at5cRxzBTFs29+UMqpUBcxKmo7Jpzd0HKZKro8SesWDiroJgXxGCQa0ZXOup4+m5b1jbi4ICAAAYYq16bs6IbstlU6+QDFM+9DVJepyW2ebKaOEtI2pnuzE1qXpL6fpxBj7zS9jem4+zFAFV1MemIvKi1a/iHXVVwTeyqtfwYwyCvEtW+1yc6cqfbWsqpQzoyCpmCuOTYXbdZM+Yqb5pyrkJI6We+I8f9MWUO3PeRs5iOG/TA9PoSpgOWku7a/ZdI7vt3kYZuru9dlvmaCcAAACAnAvRcy512gR5OyV1eywkzkgombrZQPbFJjIyOV1sonaaNIwZ8CNdew+xtvPbNdcK+qcKMpFXar5C8DmcOGs8Ax3wE79JLt6OdV6GyD5Tdn38aqZzmjH7celod6arztxpMzZGWImhrYhOe8JkbO3s9RCfMnMsPYk1R1FIqYnTc63uAQAAaqz7eatLfTYFTts2W5ptg+TGsC2NZuMppwabKIkGm6xu7qVkwM+06/YkTolC2ibddZAVtVwnJZ88UFfdnDLLn9KqlTMjfpyNl2XxdhZSibpeOIaZtWn27DROuwlmlquTmgiyTGRprXwH5r/8ZLlLMeq88uXDljjKqE+HXBJJFQAAwBir1XMuH7fznyRIQ8ibc82UjiU9GyKTyabI2YZadwN+4oCNud2WIxJVmtzbaDIoX0VTbGRJLHtKq1ZGjPhxNl7e1bY1ZJ2vYVBHlJGZOpm2MP8BM+3Xqpyzc2+IjwQ3FnE1cjbEMvbka2qNb2/CT5DFa3uCvT6UcAEAAPqsV88pKdyQ5lavqDKSTDoJNZWQX0VyGaoJt+vHhhMWhGzuNvXOm49zREB4pk8VzDJLWWOz62Smcnoma3f/6o3onW0T+qPbmQE/rne/62LzUi/eloaJanRqb/eHrWECZbecPzPJ6emSNd1SNCVyzuCd1+SVOWyOGpJG4nzgLNpz7z52G3mwPbrPYQy0BwAAKFixnrOkKirNhl4z2crIrEyYIT0bYoFliNOt2S3XVGI6fmIxYY+o2m6MsBTnNqRogswKJjk6PZz1NZGKsjKr96GEjp/kTXKxtou3LbMfKam8W4Cbv+hc5ILMYSrzOS2/QtiitZ4unuyIO4lp1XRtDJw/4zQ+0aal2Y7HYntVRgIAANBhlXrOJMUuVi/5lGz/PX/82AborahtAf+DcUIsyIw88hPakchehxl2esxZEXwaIaSsG6lP209uEXUAALCEla/P1QlJ9OIy48iK2qaI5ZxgTv7YabfyaUjMhctJWCAB/deQJJhujRM0GwAAHIqL1XOSMg07rL2cN/ap5Y6fCQUAAIBL5FL13J1/V9Muj9LOmz0+EwoAAAAXyYPX//wRhUKhUCgUCmW9BT1HoVAoFAqFsu6CnqNQKBQKhUJZd0HPUSgUCoVCoay7oOcoFAqFQqFQ1l3QcxTKR69/9Y83P3777lcfppXPrq+unvzdPyaV7fLx2/bXHkKTX/3j3cepz4Xl7u/+/Or7RWAUCoVCoaTlDPScy5pXP36W1y8qJh9/33/hnIEUeLbl9sf2NF3/PD07P39TqTTFySN3Sj37nFmjjZQuQvn5m1dXb94G5+6K6os52+rPbybRZuVXuJKdh/hoKDIJxrmxt4MyTdwMGJIInYdWzBQKhUKhuHIGei5b0lheJClmIOnOsVQkjpVBWaWo/KzSiKdY96ciXpAm6iVhSBRbVmyPU3fxdq8YcebdxvLLbbevahOkN8jGFTSifWnUA6ZQKBQKZSpnoudGc2dZZKljVm9Tjm9l7ssq//Tfv/KdP/y95x+uYbBepaWnxou8qNJJ/B0V+YCQmst0tQhORaU13//z/h8bQY0F+TUiB23X3sZcw/EiXNi1MjfWeRQKhUKhVMo96TmX102+tHnLrkbYLBgeQuXGjeKeUuVNXOVW9Nyv/qf7+a//9E+rGKwItUyjiMhLFfnup2/RmpYxjlVjpLF8yVbOXJELNcZegR8/u/mxvihoUK7q0LUdfhRw2HXzwMNWCoVCoYyUe9JzH//jlMlc+nQZfXHqynTA9A4kwdc7m7AbMrGy9pM2NxSyw6/ceKkxeZ5rxKztJ9KaEowcjbeHyq/+1/Orr/yX//Bv1fJXb/8vZ1OXev/7P81mYTvy+Z2r731StnJrgWJgbf77/8yO9osbfi5uUpEnj0p31jGL1rTmJ55SMnlXrJzViu30+29eV94tN5foErqZnghf/3i+YGzk8WpfeZVSKBQKhaKVe33eOq1A5Gl1rNgkOqXPbNunRmPmtILbfVtSaSDJ+oUIExKbSBrepm/PqmnKQPDjY/v+2zdBWUapPdGFg8WpsZq0Evn19v9OfYrOm5pMNqbSP7T95O3fU3x++D37u7FTpW7TKzL8XCHFIk80+g7zIGXRmtakrgRz/VynC2xXP34zWTmrFKP57Pm1V5ox9j4717MdpvecScawa+ZqhxcFhUKhULZZ7k/Pucxn1czHz9xGc2GjLNJchFQiCHxCDUnRZmaNeInOmCXSLajAOJ1PlSUh73b8pAKiZAcdI7oqV2xTkaN+HW4q7v1206LdtCaXLOOVC3upmNNtusWf8fxE20kLle5UJnO4qDhRdW0/oDBwORnjeAHMhpe20h62JsVFG6602Xg60bXmxjjSr9FJD7tlMBQKhUKh1Mu96Tm7qrFPFndSSZKiczUlRXE1eTaHzG5cY1LpVFMXT9FS3JzvnWch81ZdEMr8hF3b9ZTyXRgSZ9LdWOl8GKLUYfGTVlNUWZZVOs2X97KLnrPDL6c9Pn2d+eyVWVRNSrrhahZVUjJ5Fy2VKcX5jwScHVpm7MalabK4o5pkLIKhUCgUCqVR7vV56z4lLI2ISpCkmAimeT0sSatTpk+ExWSZEefaWRqmlYnzth8RAWI/heqG4Fsl8mKkdEWVqszi98aVgs+UrJXYZO+o20HPyfAzmSKnb6qsaqCR4qZxFlXiuebNGieHcnlnm+fSM5ypZBSm8u80TabWp24zyXj382fiNg+GQqFQKJRmWauesysxkqpFJRjBNCmkOd1ONUn2nZbZ5spo4S1jzqkhkTfURtePM/A6sqbtYofdoiqtuKRLa5+8/Xv5Mlu2XCcldSsPbdWy7P1zMvxIDdsSTp/ZdpO8u56zrhIFNl8kwSaU9GSVb6+8/rH6yVbNmzouV+4+TjVZFqHbtU+Hw6XoZsN6K6UkhUKhUCj1ciF6zqVgK9HCJxWshArZMcq1puFsYGq0DBqW4rLFHmsWS8O4DPiRrr2HWNv57eU6pvlhCCnzW+icSivfS2eO5m+/S0WebrO8yPDzZSc39lC5z/qcvSQ0UaUW01ESyc/fzM6sl24/fzsEE66cGBGC5jyGD7VkhEvIDq28eNLlOls+fna70/ApFAqFsuWy7uetNn+HlTOXy4OEMtk6l26mFMtswSaSbsEmSrSaNIxL348WpyR4aZt0N1bUjzvkxWu+77mFuvTxqPrGuOwDE4fTczLkeX6myljAyVTkmm+kuOnNnJclXB4xZuavtXqhc168EHx2047547dvTGzRErIQf1lJYFyVUigUCoUiZbV6bkqNjdwfkndYF5lrppSZa74o4yaJ3MlHQ627vp844Lq2Cw5Hiui5jtJyy3LGTLFU3wNXPIGVXpY9WtWKTFEiudycJPLF6eYdpK1ruLyVFBvGTouCUaf6o9heMae+q0EpFAqFQumW1eq5SELFlMtjJYlymoSaSpAaQQhWs2/Xj1cqLutP2s56m+JsCNNaGVJa4RtJSrNJ6s2STn2A62Sfqc8WAj95+z9VP1erlkyriZgrVKyc1vyp68dvXzfnx7RKdOGiUjxsHSqZgtxBUNoZ2FWDUigUCoUSlRXrOVtSFZVk5Ukz2crIrJRNsS6MBZZhWmybltOaqzgdPy4Gr2Zq2q7w2S3yMDQU9bMR2fPTuYSlOLchpbbal3VkSutzGLUyDVaoStjUzNCeeZnq3SbQFCPWl4pp00SRgHKKx2Wl+mUl8mQ2q6RQKBQKpVlWqeckx7exekn0XKoMzpZsjAcr2scgpBzqjXH3X3ZYGwvFasemWIyLE+LmZFW1Y/SXQ1iJDIu7g3TEK4VCoVAoRVn5+ly9hNWypUsvF1XKL5zLDjW+i3g9xa6W7fOwtdc2CLLBx7K3f7f86S2FQqFQKHuUi9VzIQfv/BjuAkr1SaspO3whMIVCoVAolLMsF6rn5ne8bfL95uGDDo23uDmb/T+1SqFQKBQK5d7Lg9cAAAAAsGbQcwAAAADrBj0HAAAAsG7QcwAAAADrBj0HAAAAsG5Wqedu7Q9FPbm587sAAAAAW+Yc9JyTZ9e3fq/L7bX9VrlhcwAAAIDL5gz03N3NkwWrbQvFHwAAAMClcyZ6blTOWTXHg1YAAACAiPvSc1aY+cemdtP/b2oaam3ZQh4AAADANrgnPXd351SZkXCizyZN1wA1BwAAAKBxv89brUYzMs781xNqqDkAAAAAnXvUc06iXV3f3N26jZZYQ80BAAAA1Lg3PWefsAaJ5r6CpPrA1am5ztNYAAAAgK1yv89bR3DCDzUHAAAAUOHc9RxqDgAAAKDNees5fgoCAAAAoMc56znW5gAAAAD6nK+es2qOj7QCAAAA9DhTPccXlAAAAAAMcpZ6DjUHAAAAMMwZ6jnUHAAAAMACzk7PJd8zDAAAAAA9zvfzEAAAAAAwAnoOAAAAYN2g5wAAAADWDXoOAAAAYN2g5wAAAADWDXoOAAAAYN2g5wAAAADWzRnqubvHD68ePHjjwYPrp76m4P2bhw/EJiqPmr/c//R6yOwiWePYF8Q8cMHAqbi7efLGG2+c6Asknz56YHh0z6f9oxfP//qdn/3oxSd+H2CCa6PkSK9aceu47zvC/YGe2wDoOShxv8NitJfhgN/gfSI99/7jh/bG/fDx+75i5uUvTAaNy4+effhLf+wokLNXA9fGmeBfvwcTXlbMaTeDrbFOPRcTtN1a9NyhIhn3g56DFFFd12Fqb68PJcJOoeckGWi54JcfvDDp850PPvf7lk+eHzlnwyrg2jg33IraIVSYuyFsd1EuYjN67nw4vZ67cNBzC3Erc5nk0up24fh6zt289SzwyfOnz8dWXMYt4TLg2jjDn9JsvJaXcCA3FwB67uSg5w4Mem4Z7r4+r81NVKoXcmw9V1+be/36sw/fQc+BCtfGef40+mHW6Hjc6jmgnkvS6vuPn3i18eBJNM/BJqrMdcmIn4iWnrt9NPo2O83y4c3iCySMZS6zyIjGkpeHj+dXWWkWHzWM+TnV2MOQiyY+zqjTLPJsXOMxP300mz16upOec08YnXyxK1Nm2+7WVI65CTr7QGFozfyxUs0M9uWWyOSooN1794+ndlt33SeOxvqKjgbjwn1zfiyD42re/iVnP33x3me+okTez6SW/EmcJPX0HVfzG6GKd2KlzR0Sj2sS+v3R0198JEdjIm+2U9dQcdjAzZubrpNcYx0/zoOxl6jkmGyXIaW9GLz9YdnwtWFOhp/Zgmmm3fkqT407z8bMHxi8xizWoRgYmufzIILOOeGB65H03KMo3UqZpnqZnqv7idhbz1Xl0UI9F4uMqCzUc2E4WYmCOaCeO8TYQ0eZ4JbzGCq1eGyJRdhIzOHyKMtiPffk5sbcd6YbknpT8zemWAHZqtjK5bb5+HzXmxjqy3qJbnz+jplFc4B45Gjh1+BiikIY6Ms4c0MLXfmbeOylE4+n35fF3bcbN+6QGp+/9DUVumsw1sBm0EgBGOfqG9u1N2Y5fM7+8L1nz308XlUkaTtrLru6wwYnvca6fqy5DcZUubN/fXPzZNqOGtoKF/ZcY7i7vU32D8R2rw2Pux6yuZ5QT4Sc2bnJ0DXmG2WtMpOYQwg6Hrh6jqHntOL1wSI9p5VSZww+b817mYj0U5Ymnj5eoucqYbz/+CZPPrVIBOMnqa+ppZ6fmCOPPYjCZL1NOs3P+2wzS0lVO1ZinltN9ZEkXb4+l93e/A0rrbI3rKQuzW3KHS2/cY72laLfB/eOR3drkXt6dKTXl9y4U1dFYujF4+n15ZCHre37drTa0ViMGcrZmYfdcrY5FAsI6yR26/N64rbqsMFJr7GC3I94kP1oO5UHqdkp2Oi14XGzXbsaMhEmuNMan9WBa0w5p82Oh17UPZyP+p952+FIem4SH7NikJqleq7mJ6IipHIq+iAsqu17MQT/ZYQZlUhqBL2SRzju59hjD6cgUmbi3Ku3yjmaAtBmTI85XBuxdFMrezQyWXLn6aUczU+uaUb7StHU0gHiye+/M2IWNe30VdhbRsae21h643L0lucCfgXFZm49MQ/mbO35V0E7Z2f5WCRFyOLSNl8xco/YdtFz+fwd5xoryf04D3432s7N7H5xJRyb7V0bns7FYA6bcxGf9fgsWkausdHXe8T+C3Q8bp04hp5L0nMqGhbpuYafiL30XFj9WiIFdELYU6nF09dh+qPJfOB9PxMnHPsUpDj3nvUFvHq9pR1zsqQXej+Qnktqy5qE8iZocc7n+9doXyk75dp+PHowFrntRkf6fZX5Ibt39+PxdPoShvWcY3rjkZZ6zyVn50sywmH1XGNWd7rGFHI/zoPfjbbL7lzYQkt3HpxNXRsedyIak5xdQu5kJeYD15jZMTaliams9rzsVZ0gTdFygWN9HiKwh55r+Ik4Fz1nCUHOpYyqrcPC0aLkA2/7iTn+2PPHoNLj1N3B9Jy2EFi7YDqM5r+yJkHuXypzo9G+vBiKGWkV049HT+EW5zq+67b7Ekf5XVqGEGr78Xg64xKW3/k/f++ZzZFZ4jybnG3DO7Ge2/8aE5p+nAe/G21Xrj1j4V0YJ6eTdZu5NjzuRLRmN3lFu53UeljPqZTn3eNe1azPHQT0XBHP3szixpVcrOiRCCGeeZjBWz7wlp+UU4w9Vof+DJZDOI6e20mYHlTPVQ8LQ33Z3cSVnvz2j8d5UG7rZX/tvpK7f8DUmgBC7UA8Qmdcwi5vtZHEmafnbeo5u7v/NTbgx3nwu9G23t2EO2pH0er6oGzk2vC4E6G88CPcVeRM4jM4MaznFp0/3j93QI6t57LKsDsl+5C2TfGZe8RPxF56bpaJiqTYj3mtLgusocM0vXI0PXfgsc/eHl27UURnqnKOpiaaoNRjLvXuXKNcGw3Ue5OSb5K7VYlpMd0B6wz0JX4SEyUYwwHi0W7VhrK605c7nHeVBTASj6PTl2eHRzNnnbPzXc+h9Fx6Ccm5SExSg4nOuRjwE19L0bbeXYy1yJ0fj41cGx719ZoxnXp3OeVnYfgaG3i9z+y/POf13J4+LoLjfB5iysHzStVUM6ucsnibIT8z++m5ud6UZNVnGSbCVBXNo8jVUghY0THFmlkU3hI/KUceuyf2lkerzMZ8TtWuKzG3rp8d9Fx645GbUXq/6uS2AYOhvoyXvOv0RjlxiHic5+yeq9X1XLlxpW1sk7RyIB7LoNlyQafnv3PJ2Vp4/jngspx9wmtswI/z4Hejbb27BGedXYcWWcUxHDJrb+Ta8NSmNkGuGYNiOXTPdL20z3HCIeScOFn0Z96Fchw9l5co0aZZ35RpOSdk7jE/gT31nKEIyZclEmdWJ3kpY9YGOPXV1CvZEl3LT8KRxz4Rx9OQqlmpiLBazLOKncqjm6nfxXouuT3J3Sq/EQ3cnqRhZmPuc6FipK+sxmW+pInnEPG4PWMzV7gmxQ2825eLMoRo9+y3U+WuBuIZGpdD8rp+63b5L1nP0BdgLJI763nxVDk7f6xm+33+QtUZTdwk23k+wTXW9+M8eINoW66XpGHSt6nIY57YV89t+dqYMGfCTG9+tjOms6mchJFrzCCVWa1xq53Ww8g554XlOcNxnrfGSbdQBrH0sas1eeae/JjdWG3UFMb+es4yrI2qaHqlHlKu/6K+8vmJJrNMYw0/M0cfu2cOptI8izZfcYxpxRxNtT0aXXjeYIDpTiT3OEG70/Vym8feBb2XiTi7md1+X9Pt0iAiSdKbIer+EPEI043bUPmzfaSvuSOxlJgLd914BsdlaDxb8asXcWlkPkmfoaTJ9WQ52zCH7XvU142anPga6/hxHryDaNteBbFj5aqo9Rr03K6rMBu+NiLiy8OgnuT45CUMXmOW7utdaLyWl3AgNxfA0T8PAXCOTPcmv3tUTtnXFpDcfrmPV0QEpHm9xxauMZ6q7XZtLMJpbl2lHfoaO8zanMHdEDZ+YQjoOdgcn3322V/81/8c35tevnz5ve99z/wru8bgL//yL8OuYS8DuQ+++bMjduG4SAMdv1xzmX+Tf2S/eGxo+cfgJ0qusf/8XxszuYrTXRoEeKhmWHRtGJZOuJNzf/Gd7841s8Gk59oeDF2D6fV7MA3GtSGg52BzvPXWW//vX/830VhmV+4+//AP/xDuQcbgb//2b8PuvgZyH/zTPztiF5dr0ML9gb/yP8w/f+9Zkp6XLsD4iZJr7L/9dWMmV3G6g4HZjtnkEsy+14Zh2Rm5u/mLq6s/+c53VYOPf/am3DNbHgZO+pFeteLWsd2lOvQcbAtzZzH3F1VjyZ3IG2g3pt0M/r+n/0+mHQ/exQUbmO2Lxr4ZyyTpUJSvHGsiE+X/PpnWTs72bI4bmH83z77XxviE/+xN/3Y3I+ZUA7P7l3/2p/Ya+9M/qxm0u5BdswHH44B6zvLxxx/7LQAAAAA4Ceg5AAAAgHWDngMAAABYN+g5AAAAgHWDngMAAABYN+g5aJP/aL7/4Yar6Mcdbh/Zmna5fhr/2IctV0f4VLl8xjr7gPX0wev6r3UUyIh6v4ubIx3FM/Pa/bqHG2+l94HpBQAA6IGegzaT4JhEkhcoDcGhiCHvZIGiquGct36NTHqPxKJXSMPfouMH+OThQztG+xNlnR8/cz3OPzxmBz79sFlQsVVpuHx6AQAACtBz0GaWJn7fC458dc3WWxsnUHL5olZ6vMOiPLx5mv7ca1IaGksklNeOXf2X4NVVbB/Ca4hR26NVYH6YT10T58TVtMTZ6PQCAAA0QM9BGy84gsSpCg5ZGFMPuYWrYVEldJVQyvRQdS5Xjx7J2lhaarJsetAZB+/l3Vxq8fglutneD3ZesasxPL0AAAB10HPQQYTOrMZEt6kaRQ7NomdafCpLX6jtpOdmGeS7ntVbW1qVclBK4TBTpcni4vWjXP/FxYzlduolkmsLphcAAKDCReu5+Yfi/M//OoqVj/igQ/thX+fLHIh+Jc4SO+v4cS2NvXiQY95bEVLWi+H+fmw4eXxpaAkOJ3oyPZdpMmnefzfbafVcjHc13LVnWpyrDb8yb+PTG66v+7sWAADgTLl8Pffw8WPz35TnRSjlKixKkD5p1hXWbGurZruuH2tugzFV7uCjx48fTttxhpaWWc5+/+nTZP+M8MrJS5mwBOV2H06CxqoWEVtH1XPSb6NU5NRcsqe0MoSwG0rux01CvD5nDKaQRKv5lbz+wKv4S6q4NgAAADawPpelP1fZyojSKhJiDqlN2tmq3Cwi9xPvR9u5nsubrYmwBmZEm5Vi8wKVl01yaEjWzO9FM2VevqrhF9XCvO26PifhBT9ut9d7kJ5uYxq+FYL2Q7L+WSp6DgAAjsdGnrfGuNpGSpS0qbZaJLNyP86D3422czOftVeZs71mevTIShkzgFzPWWG0SM/FWtCUhho7iJ6LnUicTx4/DpFrpB9fsDH7d8I5V49uZd3OHpRRZG+/AwAAOAhb1XNF7cw967mpK2E3Wec1YY2jaUWvmeSb28z+YfScRVrNyqlgfz2niDkzELvrBWUIZsb2EiSaN5MujIcg44K0retCAACAfUDPWRT9M9CqpOkn0nDxdqnnHNLfxEpW63LNlOo50UO76TnDJOl0SSRdO4NWqeg5v8zmjqZLbpNiy/xPfryGszX20epsYGsmb2YU8rbCmhgFAADYD/ScF06zlS6wdF8RXT/OwO9G2xU955kVYs3inKjquVnYTUtfuq6KKPRcm3h1zVKsh4nB9WNbH6vJSSZa0RZvW1wMcU09eFGBYjaLV0MsBPsqFgAAYBe2p+dS/aSoKV1gdfTcgJ+d9JxFLJomGb5FjWM/by31nIgzN4ID6zmv2xYXr/xcL9dP/ZqcKUFyTdrOK0I7tHowsZpUJyF2BQAAcGg2oOdS9ZLJJ0Wm6QKro+cG/EQaLt7Wu0tw1mt45KpJGStiJm1kyrT01WXh+lxOsT43joxC03bVB6a3jx/fzGPMwo4f5u5DUOkrefoOAACnYwN6Lk6ApezKaqo5s2yZ0vfjLLxBtJ3pObub9O091Xs+I3I9J4RVuvDWtBGVdno9Ny+kKatr4zGLh+Ak0rJ7Pm+tXpsAALB5NvG8Vf4XlFwYH3bHQ+KMRNTky+9qdPy4w95BtC1Gs+PQaKbZ61lghZoRK5qek08MhGW58GSzt1B3Uj2nCc1Z3o048R+MmBbw3FvoHj2eV+aCLtz9ZGqXJQAAgOUy9dw3//j7pnzja1+x2e+3/0h2L6D44Z0h6ipU9ha0CS998mW8jHt73urDM2Wk9/BwNutrqo9k6ywQd1d18R8FAAAAE9v7PAQcC6dXRMwFeac/YbRa7RTrc0PNI5k1lWEV6NrmwnR66toRrLtgr2ietgIAQAF6DmAduOetXM0AAKCAngMAAABYNxet5wAAAAA2AHoOAAAAYN2g5wAAAADWDXoOAAAAYN2g5wAAAADWDXruUsm/BW36AYMl3+gWfVnuXNo/WlX95rlDxAMAAAAa6LlLZdJPk65q/XZqEGHZV+AeQ8+NxAMAAABLQM9dKtPPHuT6Sfk6vqFfuArabkc9tyAeAAAAWMQW9Jz7WuHN/UqS10/5D+Er+mlaOXOl+jNcg3quyng8AAAAsAz03MUiq26zPpOVs/JHRbOHqjW5tq+eG44HAAAAFnLJek5+7ktlUnfVXwRzv5U5HZitpFpQF5aSPu9XQ4p+mn9avqKfZJ3s4c1jv0pXWzBr6blkhc+XwmwwHkOYZX56HgAAYIStr8+JdCgOuupQ6x08Nv9NYkcTgpkvzeT8cI9B3dvmwrvoZskVs7eeGwc9BwAAsIjNP29VBZ1rMSsxUWaZUe5VkW/Njs8DUWlukcy/oa32FrrB563Vz0MsAD0HAACwCN4/pwgxVxNVKFLNkLrVbFSteFZMD1tdhEGxqe9pO6GeAwAAgEWg5wop5lRYYt7Qc1Ntw2SBngsLUzoHV4bzw1bH9NhUfQsdeg4AAOBcQc8ZknW0Us61xFqq53Q0dXQWRA9bhdZb6NBzAAAA5wp6zjGbuK1MgSXKLZDU6iZnTtBeZSnVGHoOAADgXEHPCZMec/83lduELOpNlckS386c9nlrWI1TSvkWOvQcAADAuYKe88xSqrQUPZfWp3LOoIq+c8a9Wy5/q9z0q1zlD3+dUM+Fc3FgAQsAAHChbEHPqXqsYBIRiiKT9obgQhVv3iytNW7PU+OJ8CpUV/VbS9BzAAAA58om9JwhSDKPprGcTfWAORI7qUiNIEVmzlOU5L/WEKgJsvvQc+ephAEAAM6Ny9Rz3/zj7y8t3/iP//7XHzz49X93ldWb8o2vfcWKi9/+o6x+UfGRwSBVcQ0AAAA5W1mf6+LWhCpLadP6nN+F42OnnKetAAAAY6DnHC01h547Ne5sMN0AAACjbF3PhbfEtRaD0HMAAABwxrA+BwAAALBu0HMAAAAA6wY9BwAAALBu0HMAAAAA6wY9BwAAALBu0HMAAAAA6wY9BwAAALBu0HMAAAAA6wY9BwAAALBu0HMAAAAA6wY9BwAAALBu0HMAAAAA6wY9BwAAALBu0HMAAAAA6wY9BwAAALBu0HMAAAAA6wY9BwAAALBu0HMAAAAA6wY9BwAAALBu0HMAAAAA6wY9BwAAALBu0HMAAAAA6wY9BwAAALBu0HMAAAAA6wY9BwAAALBu0HMAAAAA6wY9BwAAALBu0HMAAAAA6wY9BwAAALBu0HMAAAAA62bTeu72+urq6snNnd9V6djc3Ty5urq+9Xsat7etoym2s048OS6AdgTH4fZ6YaQtzCgGvO0wPQAAAFtgw3ru9vqNN97oCKGOjRN7bTHVF3wzxt1SuWLdH1rMGZ8DLm3PBxNXA+fCTI6xEaysu70vIQsAAHB2bFbPOSnWUQMdm0l+tczShSdrKYrk+tZum0bGQGqurq/DUdke0CqDcs6aieeArHSF3jMGOrc+Sz13d3MTNZzHKzy5uTE1pW9j1+zPz1WE7X1k5AAAAFtgo3rOCoTe4lLbJlVS1lYzNla6C0XBmKpgqxzWSINYiC7IcpxwEjVmR3hjF9JibP+RjaEzacrR5miVMcYzBQAAAJvUc05+dARBx6ZUIKZGqlxLf9Bsaz5U/RJXynb3nXeK1Blnl8bp6ptgYq3O091dcqBiqk6HxRxIlvfcvNq4/b7Vjk/65xIAAODS2Z6ec3qrowDaNuZoXQiZg6FhvB0I6sVseFViV7nyh612oxOmjbIIZPTjF2rjHrc3eUBWcjXcxA2MqbzrTYYpmNZmtH5nfgudjc46zmfQ+YhDCLMJAACwYbam55xQaMukto076NWHk1zX1/EzxFiA5GLEUOiRiViXDGqUNJJAd3gO23ixELq7uU5d973cXvvjQyMP+IW9bAbL7ganCgAA4LLZlp5zEqgjd1o2TpTcJBoi1RixAIm3Dc6vSK7rG7M9vxctXqOS7RGNkna8ENfYLgP2ZiMh03NDEYjiqqq5pg/TapoW0zqawMCy+AEAAC6ULek5Jwg6AqRuY8WFPSACZcLYR4oi3kuPGO5ub/1u6sIQV5TPNFVsoGqcI8yN7ZYVSUOujPFsN81HD2OX+E++t645CtMynk1FumXvzwMAANgo29FzVn/0BMiAjTGJDGLJ4URHLEBK/eEoj6Q+h2gKoR5ZYzfqkYWuKHLbZqx/21nsO94fGoU1si2S1UFbadfnBqIGAAC4eLai55xm6UiHQZtUCUV7RmMEeWGOpFIjLLv5Nu4bdK0iST8QYOhE4BgSQjWKxpNi8rt1fOzWflBI2RZmfJF11Lg3CtN4EpouRHt2/MZg9wAAAJtgG3ruAD8FIYigsZrCSa83YllhasOuscsUh/9gQGzk8SJpCTaApW0CezS2Td03hIy19yNzrcKg5+et1UDMATO3Uy/WzLX3G0YZ7xY9AADApbIFPeeWeToKZMQmll6RFvHfEFJ8NUeq2tzTQtPK/1CVyEHD9XXxDb1F25yo8+Xs1XhsmixRN3ZTGVI9kOltcdZimg27bSbHNjjoL8cCAABcAJev56wE6eX/ERvDLOcilM8vKHLOVho5olUvVld1ITTAHo1NqE5w9p8IpxNguywH3gjEHDK9hFNiLe325FX3BwAAsF0uXM9NUsDvqozYODTpVXwlmyFVMxPV2qXqysartxn4aGy9cRM3R9LORGzEVn2+yh7UkdcCMcaRdSyCIzcSww7jAAAAuEguWs85FVJXHo4RG8GIiEJBWPWRV0a6IxA+/ZAa10SNIKplEb2Hoe0ONdz8ZAMKgeXjtMZDc9kLxB62w5lNsgbewLBsOAAAAJfIBes5m/IPp+asqQiImLmx8+QrE4nhDvgaK/+sQaNHYz4Wzy7YWEb1j4y3Gmo0XsOg11ihKo4nn2FWJQah7IJvnwMAABAuVs9Z6dRTaiM2i7AOY9lh9wv/qRLKOGg4OXl4GkFCjQUSfs9rASYM1bn+uNhN1/JOAAAANsTlfx4CAAAA4LJBzwEAAACsG/QcAAAAwLpBzwEAAACsG/QcAAAAwLpBzwEAAACsG/QcAAAAwLpBzwEAAEDK00cPDI+eantwjly2nvv8vWfP//qdn2XlnQ8+98cPzstfZH396NmHv/THwPHZh+88TU4KUwQb5v3HD22azHj4+H1//OBIWo45YmfrpDwnW5siPwPFsH09ou5MuXw996Onv/jI71o+emHFxI9efOL3D8cvP3hhPKdi8ZPniJUZL6+TKTLyjimC7SIZMkmQXnEdIWlKZ2mWfvoIPTejCRlTt6kpUi7JBHd9ctGcI5vTc1Pli/c+8/sH4pPnT5+PLTWNW+7PKfvqIEr6+Uu/e3w2Os/DMD/ngJo8Nd11AMYT8SlT9hnJA1HSJ1x9OsN5dtdex2zEBu6BDeq54wgL9xhxLGNtMo8umJ9DgV5pw/ycA/piyFGExQKVeIY64/gcSUW3OLt51i/HkrM5aRDD+pzyjq78malJRYUoNMgDVq8LRa80l/1ER6pF6dEkv/TdeMkz4k7M430ZbHf1o44oEhuY632yHJqfZK7apKPOm8g8u6kIY8x6P9DY7XViKvNH8y68ULmkryFkolp+tj0/e/L00dWDB2+YYjPW02vZNuXh4ztvMXP76IE3tuXhzZS77h4/dPVzTcT7Nw9NK/WQjppAC2UhFRFpKnXZVcvCiXfvpJWFxZGK0qOpyhrEIXRiHu/LkNjqA4hNjIXrfbKUY535SeaqTRp63iRyFBkmVqmDhCVjn6Y4iyAd7uK+ilqNjuUU2ZgzOBDb03OS8OalAmsTpRafpeI0qb0xzuCcR0sOIXX1VMsk1/xuiU+isTo0zqPE2Y95otdXNhtpMhay4QfBkdU058dtDzzjljmcB1LG4/XKh8ahN5MaRVDuP3Y/sdHQaj6753QEf96T8/jZh8+jid32/ByASc89efToyazVXIlzYpB9aXkiuWk6eu1aeHnnFaFoxEe3dnsITUVI3ZwJ7X6UF32ujNvkLTyuOqoNqT0TAAXdvB48zUa2avbbj3mi11c2Num5OWG+s6Km6MRV+9qKSUHefxmPeHr02Pznq31A5ej3H7t3Hfmo+ez1ZVD8V2m782H1OoTDsjE953NbU1jUcmSWjZxZknojSdfsopvbnEHqIdVzBUquFdp9SUf54k3StdcHiedcwPXnR+lIwTXJdKH0Nc+z6yupKWP27D12Q3rBVDoytPsawjjPxpWz7fk5CBWh5koQYWHdLtTIqpupcQtv7z8WLSjyblrGc8ZySFvtq+GT/5xCywRdUubdLPELzizLztLU0eiinawN4iaxsFUNKSAtFIN2X0qzvEExhYZ8PvrzU40vQQs271/2U19aO0Ol2qOEpDTw3fnKusd2XxZ1kmq0jac5GPUGB+Hy9ZzJbXHJ0qGCpKhUwZS51qUuVaDY1CV9VRJYN7cpqbSDFrOj2ZemAjOtlssFoRAWvfkZGpGuBmRoYQhjZ8ex79g9YmmC1+TURPec9siGqbHp+TkQsZ7zeTKoN/+QVH+cGhb2bHqamlgP80Nbu1wnZkkG7hAS30w/BUqjtJsy+bsaNRaxdeiddXN/2VsPLWZHsy+tn0xJ6I4Lr6UnVxMqtJ4KCq+OgYAq3nV/Hq1N1pVHLI1py1+zL4fWYZ2+Pzg1W/w8RActI+bpzdlUUpfD2fs856sC3dzmDBaFrcZsafWlp/k0K+saoszcnfkZGVHNJq0/kF4ZGXtAjO0Aq2et1dcQ2QQqbHh+JIlVWZBTgp6bk1a69pa/ba4otuHU5OHjO7cg9+ShlYBW6jn//rHsGLoa6aA2yrKxs2lNjdhbyt67uXpZ6rdUB9rqS+8mbaG3L2szX/n86F2l1GzSem2klZaueo+xB8TYUvHW7kvQe6yxzBpOAXrOIgsPcSkyq7jyysbYV54rxfjVwcJVN7fVMnfCQMyGfs5Wy+QqGfWMktfb81Pxk1AbdVp/UL2ilto0mkNFF4FWX0NUpFLEtufnQPT1XNitFNcwPGO9sYt5j27F7cPHt25tT95XN0hV5mSIXULeSEx8xs7lis7kNXfVzf1DyXwgZkOrL+lGx7tKRj2jeG3PT8VPQm3Uab14Sq0qLZUoA9JEpwxhMleOeFp9CZUgK/T9walBzxWpSMuIljnjuuSkZLUCcZWnsW5ucwatsIdjbvZVSfMx43quMz8DfdVGndYfVK8045kJ4qZ+Ulp9DeFmr3lRbXt+DsSS9bmGLJueyT66Nsb23XLy1PXhE+sqfVDbQ0v+OUWqrjWaU6zbGsnMuozp5moJqdHBcMzNvrrd1Aage50r3Vbqd6Cvmklar4200tJV7z72GTF21Fq0+hIqU6mzyBhOw9b1nKxyJXmrrY2MN5d6h1LdcfTc4pgrfYmf5ppQJa+req49P/pUJJi+FO2YNdRGuoNeGRm7ECyll4rD7jntwfw0kNRRZUFOGdBzk1aLbQqCH/90NV7VW/DhVoOW/FMUi2qjSQO4/1tOA3pa7ub+qSO/m7M45kpfenQpeii618nW/Z83GehM95o11EaqB1nxJ4yMXQiW0kulTasvTyVKlQF3cGq2rueUVKdlREFSVz1pFTR0T8uDM6iHvSTmdl+djizKEOysauPqzI+E3ZII2nSJz3mwB9IrQ2M3JGqpOvBeX0NURhGx7fk5CAN6zhiFjzjkn1Q1zaXh9BFXU5JvLSmb9NCSf4qSZOuN5IhlMNXqabmbrDuZf0nM7b46HVkUB34aSq/t+ZHOuuPODPKRaSOtDENzN1NplCHdeSfVgff6EsZ6tHS8hXnudAgHZfPPW12OnPOfy0+2Rs0901El6To/SX2S6hJ6yqaXSpfE3OlLXGV9GYezIJA5DMtCNrbnLxRhYWnMj8Xn+yzOj17MvefKIxupQWZ1SK/sP/biREjv2hsBe+d0BNtd4eTz9z6YB7vt+TkAQ3rOZqP82+lC8Q2D5ptW4xTPQ2jJPyNLsu1UOR1VPDo/Sb0YV5N/Ixn3Ev+SmDt9yeGsL+NwrsiGYRs8emRbKT4b82OZDqctnz6azfOR5/uTj7SD0kqQ+j3GXjj2I1BcdvpyaLFrOF8NV9M8drqDw8L753zekiKpKKwzqSmw4tCLlbg0spekt1DSBNzTc4aFMQdjU7JkPxD5bOCjcr2ro6vPz4RL+eLN+8xkaDQ0U/LhLNErhj3G7g/lbr3KqUqWUIq+hgjnsepn2/OzJ4N6zqF90LX4Rrp5Nc4rvEUfbjWMJVCf1wWbIkO+LFs6W9VhaDTTSLdJn4bEpRxshr045ojcoht5bOAaO4/q6NyRZuRlb5mjNFw92LRWWqi97jF2fyhv4T0qo+/1ZXA+1Ymb6duEoNUhw5G4bD13aFyybKi0jZA/4wswPwD3y0g63gCiJ3aUKxunOnceJwoHptDZoedOCXpuAUbHqAsPW+OjyiIc8wNwvyBXhJqWYH6GEElXTpSvHxJp9hQw06cFPTfMRhefPn/vWSLdWJwDOFM2qlbMsBOFIaoDNbcv8nR2msd0r4Ob6UFbOBjouT7hfT+bFCv+TfqhlCtw254fgPtHcq1hk2IljD6QT8O25we2AnoOAAAAYN2g5wAAAADWDXoOAAAAYN2g5wAAAADWDXoOAAAAYN1sWs/dXl9dXT25af7cYsfm7ubJ1dV16we4b2/Hf57bdtbp640JY+fMn4RKCcRUyq6hE9ou3N1clwG24x7ADG2g/d7dAAAAXCYb1nO310bxdPROx8YKjI5m6gu+GeNuXK5Yx8bv3V3UwMYz2FcD47nlJO/EBrKvyho4F6ZbK1EdVtbd2ok9wGgBAADWz2b1nJNiHTXQsTGHnY5pmaULT9ZSFMn1rd02jYyB1FxdX4ejst2ILnXrUSsdVnKJ54CsdIXeM5qdT+POt0vm8QpPbm5MTenb2DX6Ez+pgR1Ruw0AAMB22KieswKhoUMcbRsrKGY9YW0146rEUhSMqQq2ymHBdmTEnub09nqZvrEjqI8vwxp7Uea1YFrjHvt2vVW6rI7WYttkR+OZAgAAgE3qOasQeoKgY1MqECe0bJVr6Q+abc2Hql/iStnW33lnO4qd2n2vqiaGxJWik+rkAykGpg4pfRjsjIanw5IPzc2rjdvvD+tIAACAy2Z7es7qgZ4CaNuYo3UhFCudeDsQ1IvZ8KrE6JLiYavdUEPInGp9VAVShGnXN5rIOyk6rfV4ezObGRt515sMU3CrjXPN5MRGZ9Vb3pHzMdIxAADAltiannNCoRBAKU0bd9CrDye5rq/jZ4ixAMnFiKHQIxOxLik0iqnw3Zl6F8DV9Y39LxY88+PWEY1jvXSNJqyxBGCQIfsdh5NkFWchqqGRB/zCXjaDZdAjQwUAALh4tqXnrCDYR805UXKTaIhUY8QCJN42OL8igJwYs45kN16jku2qRplU0dTr3Ic5YvWdbFXbT7j2dhmwNxuWbCDFfrNHOTbFXTANRMWOyU+LaW1NZ1kpDMUPAABw6WxJzzlB0JE6dRsrLuyBVLyk2ibeS48Y7m5v/W7qwhBXxI8oc7zd7fR5iLmP2UPhXMGOUozslhVJjSb5QIqBtXs0RxP/IXjLHIiCaRlMrWHaqyV7fx4AAMBG2Y6eM+qgq+YGbFLxEkuOVOkUqidQHkl91vF24XMSwZNVO97DiK/I3GKaNBbq8nCL8Ds92s7iBvF+FoiONbItkm8ytpV2fS4NBQAAYJtsRc85zdKRDoM2qRKK9ozGCPLCHEmlRlh2823cN+haRZJ+IMBQjSDtLepv7tjKnGr7icLIVtSU0RSnIO/b8zuO5uNhidlYRM5tZ4PRmsaT0HQh2rPjNyrRAgAAbJJt6LkD/BSEIJLKagonZuyPbvkjTnKEXWOXKQ7/wYDYyJPLtBq5Xehj7swG1vU1ZDSRDyTfNxVuX31K7CO2Hc6N5uet1UDMATO3k7a2Zq693zBdjUYPAACwDbag54ysOMjaXBAohkiL+MefxVdzpPrGPS00rfwPVYkcNFxfJwtghsri09y3MPURRRJt1hkyMs59NBHlUmJMNn1ZWMqQ6oFMb4uzFtNs2G3Ti22QvAMPAAAANqDnjDTRBVLEiI0hl1QOZWVqkloJbv1Pq+6rK0tu51WkiKJRJ4a6ihpAHZhCame7LJs1AjGHnED0jayl3Z686v4AAAC2y4XruUkK+F2VERuHppqSN+l7dNVTrR1SV7rd7NMNYsCTtRvqUEMfQkbZg9qsFogxjqxjERy5MZt+rQ4AAAAuXM+NKLURG8GIiEJBWPWRV0a6IzB9qiAz7qqr6aOsSt+267gf10Xb20CHLbSBpVj3Q3PZC8QeToeTNfAGhp2HAwAAcDFcsJ6zKX9EgIwrEBEQMXNj58lXJhLDHfA1VoNZg0aPxjw+OgnBtE5dnYo7qmBNdtY/fTnXRSIXFF/THIZZNRVibCgD59vnAAAAhIvVc1Y69fTHiM0irMNYdtj9wv+kWlSUcOY36Fl3xqamyO56H/zMw1uEabxz2xTjSZ109TOyMl0H6hkAAOAyufzPQwAAAABcNug5AAAAgHWDngMAAABYN+g5AAAAgHWDngMAAABYN+g5AAAAgHWDngMAAABYN+g5AAC4Tz568fyv3/nZj1584vcDL39h6uOi2MA58v7jhw8ePHj01O+eiqePTK+n73aQY0d30XquuBeE8vylN3n9+vP3ntlbSVbe+eBzf/zglHeoZx/+0h+D84PzdRbwOj0XfvnBCzMb+cx/9uE7T5/vfDqqei7GdXFxek50T87hU/7UT+a5Ur034vfh4/f9/iHRffuRHKfLA+LjPIqo28j63CfPzY3g6S8+8rsxNk9kh4ZuLjuh3Qo/eU6eOFc4X2cDr9Nz4Rh6bojL1HNuySYRIbKIc2hdIl5zv3rtATjmSpTiW0TScbo7Bm4Ih5ee6DklT0yVL977zO8fCBfGUFYYt9yfU/a1Ljhf5wOv03M570v03EFjXqee62RuTfccY23L+nz40PiN3drOXeUOSqg9rmPqq9K3q2nN15Hk0z50Y94F9JyaJ/yf/tFj2UMg9yPyxFrgfJ0RvE7P5byj55ag6bUIVfccQwzZOB49to6DX9eN1C3XFZ1xHVNA5b4HpuuY4ezMEYJCz4393e9uJeYuFkp656r6l3ufzzdyP2ouJ0h+UovSo7lRpu/ySW52nZjH+zLY7upHHVEkNrDk/j42PyO4Xtww7Tny3ZWeOV9ncr4OBq9TpRRn9hTnXbZz54mfsZjTOUkOqch5qem5wpsdnT+2GJEIghUKLvWWisFVTySHYwc5cQrXcrqmT5KesoNyrIwu9m59PnrqPE+92YNm2//nqiaS3nYZVzSEqIUSYtJTEYcQ92lcRL4d8yBLUvcJUwsxUUJL+pmtsmhKkj4rcQmtyA2hp6aTBPSclifkxjHfDqxNdK/xSiLOavo9TpxHt5Vwm+tlxCkN+N0Sf+OOs45xHt3s+jFP9PrKZsPdN7O7ajZ82S1ruvPTx/X+zgcfmpinsZQntz92zpepzM5OWdOdnxPiuuZ12ujrVOddt3G9Fw278+Op9JsiA0xHJKjNf/nyk26/GplesEm3eFCZW/nUW+b3qloQsr4sUhV3Zn1EJuIyN1A6cdVSa53aFnOV68ZsTf9PpBHJXnzcU+nSI80ePn5q/veBllHnPtS+UhtvYpgdtSPxOKOk85kp2Oygqw613sFj89/UldZx5qsXWyusaLRViwL0nLtVxYfkrtH861y5V+apxeHMsltzSBXNLobyROYhzRMF2v3d0e5LmTrbUdy1dp/N77DD89NBRpFNnatsJYNy7Jyv05yvg8Hr9FzOu669XMPiNdidH4/uM0OL36GMfWfSNO6QrBynZcm0SZ7WU7dimOBaRYfLrhQKFZCpCCFxbXfstrO0G7bCNkiHe6hxSaMkpDxGzW/uVevFuw6VuV8d16pmpLpwLeaufbepUe5VjJJ4mx13gpejrfYF6Dn/B3FcOrcVg3ZnkQQQZwV3P1U7tfFIX5WbXfc+uPwW1r4b1vrSskt285XdPM27hvFMLpmfOnq2600X5+u+ztfB4HV6Luc9c+txYRdnpDs/Ht1nRnVm/LXRaT6CpiCKpFzP/72WOdIoZiB1K92XYacd2+NuxxnG62bOzjc82LjKcHI/moUhdat2krfU48tpx6s4cTVRhd5N6lazUed0JnWwP+i54u/+EdQ7S3ZL1W9wEc7eNlF6P5c8Ud7cLWkOcLf7Yg2jyBOL50clc+LpzQbn617Ol9zMqiy6j/E6PZfzfn56bj5HNvKB7mroMiOr1VO0mvB1FRDoJPuZ8oWUNco6cvaRiT0sB8Uw2DpD3+xw43KHU0ep81r7pKHixZDX1lyl6L5mMi/5/NW6SWobJtWe9Ta7g54bzRNyx4lLcWcRV/6OaeyVu2eO/8uycHWYPDEQs6GfJ9QyuUpGPVPmiV3mpyBLNh5lNjhfWbmf83UwJBhep/d/3iXaXHvdr55zxJMwcE5LRHTk2TXTObKrkzXNWha0c73gu5s9qxIg6cntxG5tRXxsPmqdpUdUlo1LDqdtkqg1A0viV5+coqk6HQW6s4ika7eTWuvdJLWyo1OLrxvXQtBzI3nCNjf3iPnP39qdZb45uh7rt54ZcZXf8rr3wcaIhOGYm33JLTL/uz9hPE/sND8ZzkPRMJuN4bFzvgJHOl8Hg9dpq69Tnvez1XMeZ2a89a6WEj27Zqk8223RMa3JmogyokR4zMzVpRixNaHCeZz6dLZ+52Dj0iJM62rt49FKi9ym9K31VhJ7rjCbuK2sZz3kpFY3aTIW/ALQc/08Ifea5F7Zvucab+6G2Ly9ToirQ+eJxTFX+hq5z+q5RM0TO8xPhmuYjyIdGufrXM6X3K6qLLqP8To9m/OuNnFhFzPZnR/PSPz1mSmxV4sSeYc5pUdImp5rx9N2L1ur3cWIg7SrWve+3n2bnNJEjdf5nwI42Lg0R64utNC7St3qNkqtbpiR9q8zOXL/D3Scn5/OtGiMhLUI9Fw/Tyj3wfqdRW5MpozcxSyN++keeWJJzO2+Oh1ZlCH4+2l5g148Pxmur6xtlhQ5X2d0vg4Gr9OzOe9ahMZee8TZnR+PdFeGkVA/myVmYtVHrpJ0K1lUSdpSFVd6D3nCV0jTfYEqERIUi6poCAMrXNojumZw/ifrQ41LO5oNREyymJzNXKe48RHmPffnsXCuM/nXLKWTtL4IcSSSmE5UIZ5e4DPouX6e8Boi3EfcbUW/0xmmo8k9WnB+lHu35kdu9PUbXO/2vSTmTl/iKuvLOJxvrDKH4e5pY3v+okwejsb8jOCCsfGEgWQjNSwZeyse54fztdf5Ohi8Ts/ovOfyy3WtBtabH89ees7WJ9JNvCmWvRyZZm1rK185luZosco9vP/4UebS91XJ73K0maozBy6e6q9zeePymA1XjcG1iI4cZlyKSJEGcV060dN+4jFtZPf8ucjimywr4XjyDlX8wDRXfm4iF0rIwSytNW7V4JxxI6QpnF7YERet59xdRi3RTWogTxgiV3JDlFtG6spjbmEVh7av4EdK4xYmt8JQ0ttTL08YFsYcjE0pboXdyGcDH1XzFt+f8BrOrQkvDljphfN1JufrYNiA+2Fw3k923qOwTSlDDfRitsiQG5Nsqek5bdS1eHo5Mhw3OJNK0g35fUbzmJtFNnKorUJSB9J4qim6cwdKf3ZEWmjSID8S9+fRGudms41MYBqGWGehpS7UCCMTd1zz7XAHVBcRecza1Dub6gFzJHZS6TC+hDyaZT/m4EgLSGcj63MnxN10OjemDSA3aOWuuuf8uCyipoQd4Xw5jnW+zhbOu2Nz530hLn/3lMI5MCRpLhfRPpHw+eYff39p+cZ//Pe//uDBr/+7q6zelG987StWWP32H2X1i4qPzDF6XVUFpg567sCY+6P8kb1xan/c7zs/h9ZznC/hWOfrXOG8C1s77wtZmE7vjY2rOYdfztp9FlqTKOtyB7kSfJxDvmy3SwaEnjsoG/2j9vP3niUpwSSDY/3Rf1g9x/lyHPF8nSecd8fmznubp4/S1Dm6hnLvrEV1noKdhVdbEh9Izy1y4yJa1iV67jCE94hsL0kY7JuEZPhSyr/sDzY/B9JznC8ZvpQjnq8zg/Muw5eynfM+guTamHOXSH6lZx2i82wJ5701iwfSc8cGPQcAAACwbtBzAAAAAAO8LN+gcC6g5wAAAACafPHFq69//dXv/I7fPT/QcwAAAAB1bm//5Td/8/WDB7/60peMsPOVZwZ6DgAAAKDCD35gZdyDB7789Ke+/sxAzwHAaj7AtUE4MwD3xqefvvrqV2clJ+Xqyh89M9BzcBrCZ+sTjvhB+/LrB/hUv4o/M/c9O+nvR5mi/+7qNvHnCFEHcELeffdffuM3cjH34MHZvoUOPQenQTJSkpC84jpCkpLOUoWSf1soWJTTcg/IF9um33n2yXP0XIp7vXARA5yEb387k3Gh2GevZwl67rC4n98+UR46ZV8jtNONKhw03XUAxhPfKVPkGaZjN//3H9L4lbzl15fhTM4XwEXz8qVdgStkXFJevPDG5wR67rCg52rJRl8Icm0OvTy0QCVuWs/pp+T0uF+XQs8NcYZ/FABcEu+886t/829y9VaW737X258Tm9Bz8jQnLvmv2aTv3cl/0FDyjfuNqfB7ONmPWIf6shS/nGPzROXo5+89s4fy37NKf+RqSV8DiKSKUdJFYpQdLx0EIktVPBTKSyoi0r6kK0WBJN69E2UYgbGYDc7QVGUN4hA6MY/3ZUhs9QHEJsbC9T5ZyrHe/Hicsd5HfMn5a9Lulj/c7l4aclRK/szUvHAqP/dujP0LTV5fzV9/H77mJxGWvqKTF1Qn5kO9lieiSGxgrvfJcmx+EppnLboY6yYAUOGLL16/9ZbyAYiiWJvz4+L1nL/hJnfGzz58Ht155fY9G6TiyeL13IcmsaUZqLwRT+nE7xZIw2BQ9jWlzyg31Hz2+hpA7v7Zrf/9p0/T/dSoqhnamUZTFHn3dj9yIIcV7VR04qqjWonRoISZ0MmOkafZyFbNfvsxT/T6ysYmPTcnzHdW1BSduOqsVvM/467Mdz740Fxj00ujFB/2Wo0uVH/pxq817Y1xBmsZX7pBQiWvU4XuNW8NjJ9YHRrn0UusH/NEr6/+azkffvjDMqvpzk9M+zIqLwkAWMzLl6+/+135wjm12DW88+PC9Vyu1Up83krup/kfx+7GnfmxSUJZUWjngDIjan68WPSVlY4M3dzWpZ3SBcWmklFGEk3kx2eeZt4pO1cFizPLhiFNHY0u2jEbxE1iYasacyYtFIN2X0qzvEExhYZ8PobnRzWcEXWSXXjaiyWh1DSZ6BGcWfaqlJeq0mlC95qXl1jiwb6CUpmVUMbs2fu1LGNvKrzx+Qm0T5wcbZ1ZABjn9vZfv/zlTMz5cn5vobtoPafeK1N0tZQ11O7Lkn6Ke24zB2iZQ/8DXSxNtnAblQzazW1d/M2/devX1Eklo7T1Skg0M/2UI43S3suINLkiiK1D76wds6HsrYcWs6PZl9ZPNs+648Jr6cnVqO20MAVd5fQuubFXinvRKQ8Zxb8xtl3rvXSveWegO6+gxexo9jXwWs7/LBSKV/SS+XEUZxwAjof/ypKrq1df+1qi587vLXQXref0nBRTu/un9QfSc3qTimITYxt/NXs1880gktUFLUXoWV/PKO08U5U5LdRGWUzOppXe5jGWvbdjNmSdDVAdaKsvvZu0hd6+rM18VeZH7zHQ0HMNqaFqo8yVs6n8ieJw9rZJ7YV5Bnpu5LXsZFnxt2L5el86P50zBwCH46c/NdLtn3/t1/zup5++/sEPZMXu1e//vq88Gy5fz7XujNW7f1p/UD2nllo6MYeKLgKtvhYhCWJC0QY6bfWRM6rnxC4hbyQmvqeKXMmYvC6L2TCUPAdiNrT6GpjnZNQziteh+ekMLBMZHuX1IqtQcSlauXeDTcrG2CsqJ8e/rU0PYG89NxCzodXXwGs5GfWMclNaOD+t6wgADokVbUa6fetbfj9we2uEnd8+G1ifU+/+af1B9VxdnyWEhFFPTq2+dmFWJXOW72T9hHaeEe9tT9JbZFRrNHfltkbiS0ROoB2zQUJqdDAcc7Ovbje1Aehe50q3pfmtuJsY0nN2N7mka2tds4hxHlovyQlxlV/e3Ws+i7BkOOZmXwOv5XE9t2x+OicOAA7FF1/4n2016m0N8P457Z6bNdTu+DvoOVkVaK4XeoKl9FJx2OprVyRZzAJgSfJo6ZXJU0uxKBbVRpP+qcqVAn0k7ZgNU0d+N2dxzJW+9OhS9FB0r5Ot+1+PXnc3oeq59IUgV2nyEmhrIyOznNumDJrQX7zda37qyO/mLI55j9eyfotQ9dyS+dFPOAAcnB/+0Ig5+3R1JVy0nhv5M1q7veY3/QPpuW6y8SSZzD940jJHuy+PCIXxDFBki3baj2knmqrMCSg91RuFce08MEc7ZkNn+EtibvfV6ciiOPDTUHodmJ9mj6Ln0qsre10oL4GqNvJtS59VGrqn5aHzElsS896vZWUI1Zfz8Py0r6L5vNdNAGAI/ysR5/dctcaF6zm57Sp31Q/m23d+i5dMFt/fF+g5X6/JL4c4z9KA8T87L/KE9K69pabTl6N1f7fHkmpvnKV4yftZrTEtlIAYVhKJ+O7rldmkFfp8VPHo/CT1Yqz5acZsyGIqWBJzpy85nPVlHM4V2TBsg0ePbCvFZ2N+JsREN3AXqr1Wg7woXxdZjbtQkyYx09HyJSN+FI2l+eld8z2ZtSTmvV/L2SNXG9vzF7aV4rMxPzHuIqlfru0LEACGefnSiDn7vPXTT33N2XPxes4S/vYNJRNncmsOJb+lSnZJm9T0nEEOhZL3Nf2NHpfp/u4P5W595qhKulCKvtr393BwppL+FUs1YXhNEsi1SENdOJL2tofQcdnS2aoOR6MV6jEb5GAz7MUxR+QW3chjA9fYeayfi2bk4k1tPOme+AJTVEj0wpHrM7zWypeGcVVRWo1XhELzmh9dNvNtB2IOxqYseS0Ls4GPyvWujq4+P4H6+ZpoXHsAsAD3e/z2O0rWwyb0HFwg/dS2CSR/K8l7cH5q7Sc953f3x/1R1FBpG0G0o/J34MD81KV7yoCQB4A2/schfvITv78G0HOwSpBzQi13L5gfkXSZ8aH1nNEx6gLz1qgtwnXmx5+jIZFmLwleGQD78O67RszZr5374gtfswbQc7BCNqrmzLCTjC5Zfj81N+GE4ezrsHpuo4tzn7/3LJFuuy3OZWemjTvzg7YAoPPq61+3D1u/+U2/vxLQc7AmJLcZNrkAEUYfyKfhYPNzID0X3n+2ySet/sNYoZQrcNueH4Cz5Isv7M/tPzjHX2htg54DAAAAcLz1lhFz//pbv+V31wN6DgAAAMDy6qtftYtz5/dz+13QcwAAAACvX798+asvfcl+7dzL8o2u5w56DgAAAOC1XZZ78ODV7/6u310V6DkAAACA1/Ztcw8e2LfQrRD0HMB9sOhbKFbLNkYJABfBixdGzNkPt67qa+cC6DnYJvLdbTmn+BoU3/NmvnHFj/c8RN2nn77+yU9eff3rr37zN1+/846vBAB4/dp+4dyDB/bL59YJeg62iaiMRGT4L287qvBQut0Ebm7vT8K+++6rb33r1Ze/bJ+kuPJqtX+CA8CRsD8IYe4P777r99cGeu6wuJ8Df/bhL/3uUTllX+fG/vJAFVZSeTzZ4fxvZmEu5eRjv719/d3vvvrqV1996UtBxoXy6vd/35sBABjeecfcGezPtq4W9NxhQc+dhiPpueO+30vvcjucZo3uxQuj1V7J39mNwsNWAIh49bWv2TvDt7/t91fIJvSc/GxiXPJf13G/bhRK/gOL7tcV5bePwu/zZD+qHerLUvyST/IrQOnRz997Zg/lv7OU/vjSkr5GEA3jSdOtKJBCg+iqp+FnZvI4M1tqbjMNkPSRUvTYjkcVV1IZ2Rbhpn60iB2a92woKbOnuMvCcyceYeoomYDU2ci4jL14kGPeWxFS1ouhNsYQmN/NCUHVTYZ49Tu/k0i3ovCwFQASPv3UfuecuT+s8GvnAhev57x4SiTaZx8+j3SPyKPZoPzlSq/nPjRiy5tJTSrpHL01M2kYDJRfyfSSLlJmNZ+HWJ+TFBryp+TmJGX7JBulWC0r9/0YfObP3D8KnrRWWmeGSnVgdFxpZ1krtx91IoeTNnkLj6vOarXRzfgBPTb/TSZlg348DmlomG1t1WzX9WPNbTCmyh189Pjxw2k7Hpa0zAb6/tOnyX6EH2XlsI+jYTHIy5ft9TketgJAwg9+YO8M5k/BNXPhei7XaiVOUWXLWrKeN7dyIizzYzyXv67d01juaLGwl/vxYtFXVjoy7K/nSsWgZVyfZn2llpKH/ChGGZqF1p2hUu1RHBUNZFSRTTpMndKxqmicWTZS1XBGPGfHi6BzyngsUpu0s1W5WUTuJ96Ptt0YIr95sy7tSfBnoD3kQd59V33bnBT7+bU1/xUOAIflX+XDUj/8od9fJxet57LFMA1dLWUNZTd9BlpRik2NpazGee2YPycVS6P8NLk5sbee09KxnnHF0pi6Df1o2087kwuaH7XDarUwEs8sHmba0VmkkRJhUudqUiM9qAj9sKtthKXF0+1KIfcTjyDazs38HPbnLdAb0CFx3/PeKPZvcfNHOcIOYOPc3pobgn3euvK3YVy0ntP0U4qyYOZI6w+k5/QmFcUmxjb+qmLbV8/pab+SccXYUhwb8qMbpWg2mZuJSrVD7ypvoUuhDmqjrD9nU4m43l8j6EaQ+iB6rUpyP86D3422y+6kK6FyOhKWh7YP/g3OmYz78pdNfbx6h7AD2DRXV/Y+sP63YVy+nqssbgn3oOfUoolO68ocKroIHEbP6SgZ15uXR4b8OKNOxteSfaVdy91QPBUpVCJ2CXkjMfHRuB0lMm1wEfphpXYgnk5XQtOP8+B3o21pUziW/iaaJ9mZNi0Oyhdf2O8NjsScLfLJVvOH+FtvIewA4F9+4zfsHeCnP/X7q4X1uften6swr88p4QmH0XOdtD8R5ey8xZCfESPNxtWVAqBS7RiKp6ZNEsRTZFRrNIfjtjSv0rQqZfSgs9rBeHRfEV0/zsDvRtvtOZOjlppFbxKOwe2t/TRrUGzlJ1sRdgBbxsi4Bw+spFs/vH/O6LYTvX9Of6ucRrCUXioO99Vz48k1WHohkLYZ8jNipOkQV1c2q1Q7xsYlVlXlYVAsqo2m0N3/ulNtdDPq0bS74XjaPY34iYcRbevdxYhF1cT56p2Zg/OTn8xCrfFIBWEHsD3sPcG82K+u/P6auWg9N7Ikpj2TVT/fur+e80er620TiZosv74kMKTnfILVs2gn8XvEhW/v/aXehvz0jUq5IG2U2NvCYCSesrMcxUu9kZ8Xw25RycG0bdbbcDyd4Q/4cSZ+N9quDz/grGtT0DwYzWHdZEfkZxltGfkaYYQdwEb44gv/tXP/5//4mjVz4XpORE+hhz5/74NZnOXKrHxKu0DP+frqIpw4zySd8T87LzSf9K59ZUmnL0cnR0puz1K0aZOl9tjAe0z99f0YvFHa8v3Hj4ONuJ6OW/NHj2wbJXbxpQ/K0I9H+koNMsRJMPEDr/Q6HW14bHXpA46cZ70bRuMpW6b0/TgLbxBtZwOwu0nf3lOtZ+dJnTyhOqD9+eILI8gWf40wwg7gsvnhD82L2n5ZyUVw8XrOIuttccnEmcisUHKVtkTPGeRQKHlf05JbXCZN5g/lbr0KrEq6UIq+RnJkMJmZjCsJWgRB7rLhZ0YxSrx71xZX39AAkakjj7IdjxytSY+JpA/bOjgtWzrbtkPXWh2NdOQf2HoUw6F4Jl9+V6Pjxx32DqLtfM5Co5l6r/WxT2hjORwvX7761rf89lJUYfdbv2W/EuUi/qwH2Cb2zzPzcjZ/oV0Em9BzAEenL1ccuSSyfPOPv/+Nr33FCpnf/iOzfRnFj23CqcL+9CRK8gyZhF1QdQg7gLViXrPytXOffuprVg56DuAADMo5i1+GSo1lwex8hcwe+PEOjc1Ow9gs3jMmAfzwh6+++lWEHcBa+fa37cvW/Hl2KaDnAPZmgZqbyATcheq5RcNys7i2KUDYAayTf5Evpxz5jNRKQM8B7I7oFcO+i0oXquc2BMIOYEW8+655hf7zr/2a370IDqznAAA2DcIO4Ox59fWv2xfmzp+ROkvQcwAARwBhB3CefPHFr+RnY25vfc1FgJ4DADgmCDuAs+Ktt8xr8F/Na/CyQM8BAJwEhB3AGfDqd3/XvvrM6+6yQM8BAJwWhB3AffHy5a++9CX7tXMX9ysvh9Vz4dN+fFIPAKBHQ9gt+mkyABjEPWy1L7qL40jrczt8HxcAwFYphd23v+0PAcABMa+1q6uLXAg/2vNWu1SHoAMAWIITdjbfvHjhawAABkDPAQAAAKybY+k5HrgCAAAAnIZj6Tn3yQg+EwEAAABwdI75eQj0HAAAAMDxYX0OAAAAYN0c9fMQCDoAAACAo3M0PWdxmg5ZBwAAAHBMWJ8DAAAAWDe8fw4AAABg3RxJz/H5VgAAAIATwfocAAAAwLo5lp7j9yEAAAAATsNRPw+BngMAAAA4Oug5AAAAgDXz+vX/D0AnTGDe5aniAAAAAElFTkSuQmCC;" parent="1" vertex="1">
          <mxGeometry x="490" y="1037" width="630" height="299" as="geometry"/>
        </mxCell>
        <mxCell id="spzTUaLdhZFBcButLzaY-1" value="以预下单流程为例" style="text;html=1;strokeColor=none;fillColor=none;align=center;verticalAlign=middle;whiteSpace=wrap;rounded=0;fontSize=15;" vertex="1" parent="1">
          <mxGeometry x="449" y="240" width="200" height="20" as="geometry"/>
        </mxCell>
      </root>
    </mxGraphModel>
  </diagram>
</mxfile>
